<svg xmlns="http://www.w3.org/2000/svg" viewBox="0 0 1200 760" preserveAspectRatio="xMidYMid slice">
<defs>
 <linearGradient id="wall" x1="0" y1="0" x2="0" y2="1"><stop stop-color="#1a2340"/><stop offset="1" stop-color="#111827"/></linearGradient>
 <linearGradient id="floor" x1="0" y1="0" x2="0" y2="1"><stop stop-color="#4b3429"/><stop offset="1" stop-color="#241b19"/></linearGradient>
 <linearGradient id="desk" x1="0" y1="0" x2="1" y2="1"><stop stop-color="#674b39"/><stop offset="1" stop-color="#38271f"/></linearGradient>
 <filter id="glow"><feGaussianBlur stdDeviation="18"/></filter>
</defs>
<rect width="1200" height="760" fill="url(#wall)"/>
<rect y="500" width="1200" height="260" fill="url(#floor)"/>
<path d="M0 500h1200" stroke="#8e6750" stroke-width="5" opacity=".3"/>
<circle cx="220" cy="155" r="130" fill="#5f6cff" opacity=".09" filter="url(#glow)"/>
<circle cx="970" cy="245" r="150" fill="#65e6a0" opacity=".06" filter="url(#glow)"/>
<rect x="75" y="75" width="290" height="220" rx="18" fill="#101729" stroke="#303a57" stroke-width="14"/>
<rect x="94" y="94" width="252" height="182" rx="10" fill="#172746"/>
<circle cx="220" cy="180" r="58" fill="#eef3ff" opacity=".12"/>
<path d="M125 245c45-72 150-77 207 0" fill="none" stroke="#7890bb" stroke-width="4" opacity=".35"/>
<rect x="900" y="100" width="190" height="100" rx="10" fill="#1e2942" stroke="#35415d" stroke-width="8"/>
<path d="M920 178h150" stroke="#6e7ba0" stroke-width="3" opacity=".5"/>
<rect x="930" y="220" width="130" height="12" rx="6" fill="#4b5a7d"/>
<rect x="470" y="365" width="560" height="35" rx="12" fill="url(#desk)"/>
<path d="M500 400v170M1000 400v170" stroke="#39271f" stroke-width="26" stroke-linecap="round"/>
<rect x="610" y="215" width="290" height="170" rx="18" fill="#080b12" stroke="#323b4d" stroke-width="14"/>
<rect x="630" y="235" width="250" height="130" rx="9" fill="#101b25"/>
<path d="M670 300c45-48 90 35 135-12 25-26 42-10 58 6" fill="none" stroke="#71e7a0" stroke-width="7" opacity=".8"/>
<rect x="730" y="385" width="50" height="35" fill="#252c38"/>
<rect x="655" y="420" width="200" height="18" rx="9" fill="#202735"/>
<rect x="665" y="444" width="180" height="8" rx="4" fill="#5d6a82" opacity=".5"/>
<rect x="100" y="470" width="180" height="105" rx="20" fill="#24324c"/>
<rect x="118" y="490" width="144" height="65" rx="14" fill="#344666"/>
<path d="M190 470v-45" stroke="#2a3853" stroke-width="16"/>
<circle cx="190" cy="414" r="24" fill="#2a3853"/>
<path d="M370 520c30-30 65-30 95 0" fill="none" stroke="#6b7c9c" stroke-width="8" opacity=".45"/>
<circle cx="420" cy="490" r="18" fill="#6fe09b" opacity=".65"/>
<rect x="1060" y="440" width="55" height="110" rx="20" fill="#263b31"/>
<circle cx="1087" cy="425" r="54" fill="#4eaa70" opacity=".75"/>
<circle cx="1048" cy="450" r="38" fill="#3e8d5c" opacity=".75"/>
<path d="M0 700h1200" stroke="#17131a" stroke-width="100" opacity=".3"/>
</svg>